<?xml version="1.0" standalone="no"?>
<!DOCTYPE svg PUBLIC "-//W3C//DTD SVG 20010904//EN"
 "http://www.w3.org/TR/2001/REC-SVG-20010904/DTD/svg10.dtd">
<svg version="1.0" xmlns="http://www.w3.org/2000/svg"
 width="512.000000pt" height="512.000000pt" viewBox="0 0 512.000000 512.000000"
 preserveAspectRatio="xMidYMid meet">
<metadata>
Created by potrace 1.11, written by Peter Selinger 2001-2013
</metadata>
<g transform="translate(0.000000,512.000000) scale(0.100000,-0.100000)"
fill="#000000" stroke="none">
<path d="M1521 2699 c-414 -968 -752 -1762 -750 -1764 2 -2 226 -5 497 -7
l493 -3 113 265 113 265 789 3 789 2 110 -264 110 -264 270 -7 c348 -8 730 -3
729 10 0 6 -340 801 -755 1767 l-754 1757 -500 1 -500 0 -754 -1761z m2380 16
c386 -896 705 -1640 710 -1653 l9 -22 -381 2 -380 3 -109 260 -108 260 -864 3
-863 2 -114 -265 -113 -265 -379 0 c-358 0 -379 1 -371 17 7 14 1327 3090
1399 3261 l13 32 426 -2 425 -3 700 -1630z"/>
<path d="M2777 3593 c-4 -7 -562 -1313 -601 -1407 -9 -21 -16 -42 -16 -47 0
-5 269 -9 615 -9 509 0 615 2 615 13 0 13 -595 1445 -604 1454 -2 3 -6 1 -9
-4z m5 -1341 c-245 -1 -447 0 -450 2 -2 3 91 227 206 498 116 271 219 511 227
532 l17 40 222 -535 223 -534 -445 -3z"/>
</g>
</svg>
